# xmcd CD database file
# Generated: Thu Oct 18 07:47:21 2001 by KSCD
# 
# Track frame offsets:
#       150
#       18713
#       31638
#       43950
#       57175
#       74088
#       98225
#       116325
#       130900
#       142725
#       160838
#       173213
#       188588
#       201850
#       213263
#       225013
#
# Disc length: 3146 seconds
#
# Revision: 2
# Processed by: cddbd v1.4PL0 Copyright (c) Steve Scherf et al.
# Submitted via: Kscd 1.3.0
#
DISCID=d40c4810
DTITLE=Various Artist - Outlaws of Country
DYEAR=1900
DGENRE=
TTITLE0=The Ballad of Ira Hayes (Johnny Cash)
TTITLE1=The Fightin' Side of Me (Merle Haggard)
TTITLE2=Under Your Spell Again (Buck Owens)
TTITLE3=Are You Sure Hank Done It This Way (Waylon Jennings)
TTITLE4=Loving Her Was Easier (Than Anything I'll Ever Do Again) (Kris Kristofferson)
TTITLE5=Uneasy Rider (Charlie Daniels Band)
TTITLE6=Red Headed Stranger (Willie Nelson)
TTITLE7=Willie, Waylon and Me (David Allan Coe)
TTITLE8=Take This Job and Shove It (Johnny Paycheck)
TTITLE9=Family Tradition (Hank Williams Jr.)
TTITLE10=Lovesick Blues (Hank Williams)
TTITLE11=Red Neck Girl (The Bellamy Brothers)
TTITLE12=You Win Again (Jerry Lee Lewis)
TTITLE13=A White Sport Coat (And a Pink Carnation) (Marty Robbins)
TTITLE14=Cigarettes and Coffe Blues (Lefty Frizzell)
TTITLE15=No Show Jones (George Jones and Merle Haggard)
EXTD=
EXTT0=
EXTT1=
EXTT2=
EXTT3=
EXTT4=
EXTT5=
EXTT6=
EXTT7=
EXTT8=
EXTT9=
EXTT10=
EXTT11=
EXTT12=
EXTT13=
EXTT14=
EXTT15=
PLAYORDER=
